%TF.GenerationSoftware,KiCad,Pcbnew,9.0.5*%
%TF.CreationDate,2026-03-20T00:44:03-04:00*%
%TF.ProjectId,UnibodyPCB,556e6962-6f64-4795-9043-422e6b696361,rev?*%
%TF.SameCoordinates,Original*%
%TF.FileFunction,Legend,Top*%
%TF.FilePolarity,Positive*%
%FSLAX46Y46*%
G04 Gerber Fmt 4.6, Leading zero omitted, Abs format (unit mm)*
G04 Created by KiCad (PCBNEW 9.0.5) date 2026-03-20 00:44:03*
%MOMM*%
%LPD*%
G01*
G04 APERTURE LIST*
G04 Aperture macros list*
%AMRoundRect*
0 Rectangle with rounded corners*
0 $1 Rounding radius*
0 $2 $3 $4 $5 $6 $7 $8 $9 X,Y pos of 4 corners*
0 Add a 4 corners polygon primitive as box body*
4,1,4,$2,$3,$4,$5,$6,$7,$8,$9,$2,$3,0*
0 Add four circle primitives for the rounded corners*
1,1,$1+$1,$2,$3*
1,1,$1+$1,$4,$5*
1,1,$1+$1,$6,$7*
1,1,$1+$1,$8,$9*
0 Add four rect primitives between the rounded corners*
20,1,$1+$1,$2,$3,$4,$5,0*
20,1,$1+$1,$4,$5,$6,$7,0*
20,1,$1+$1,$6,$7,$8,$9,0*
20,1,$1+$1,$8,$9,$2,$3,0*%
%AMFreePoly0*
4,1,37,0.800000,0.796148,0.878414,0.796148,1.032228,0.765552,1.177117,0.705537,1.307515,0.618408,1.418408,0.507515,1.505537,0.377117,1.565552,0.232228,1.596148,0.078414,1.596148,-0.078414,1.565552,-0.232228,1.505537,-0.377117,1.418408,-0.507515,1.307515,-0.618408,1.177117,-0.705537,1.032228,-0.765552,0.878414,-0.796148,0.800000,-0.796148,0.800000,-0.800000,-1.400000,-0.800000,
-1.403843,-0.796157,-1.439018,-0.796157,-1.511114,-0.766294,-1.566294,-0.711114,-1.596157,-0.639018,-1.596157,-0.603843,-1.600000,-0.600000,-1.600000,0.600000,-1.596157,0.603843,-1.596157,0.639018,-1.566294,0.711114,-1.511114,0.766294,-1.439018,0.796157,-1.403843,0.796157,-1.400000,0.800000,0.800000,0.800000,0.800000,0.796148,0.800000,0.796148,$1*%
%AMFreePoly1*
4,1,37,1.403843,0.796157,1.439018,0.796157,1.511114,0.766294,1.566294,0.711114,1.596157,0.639018,1.596157,0.603843,1.600000,0.600000,1.600000,-0.600000,1.596157,-0.603843,1.596157,-0.639018,1.566294,-0.711114,1.511114,-0.766294,1.439018,-0.796157,1.403843,-0.796157,1.400000,-0.800000,-0.800000,-0.800000,-0.800000,-0.796148,-0.878414,-0.796148,-1.032228,-0.765552,-1.177117,-0.705537,
-1.307515,-0.618408,-1.418408,-0.507515,-1.505537,-0.377117,-1.565552,-0.232228,-1.596148,-0.078414,-1.596148,0.078414,-1.565552,0.232228,-1.505537,0.377117,-1.418408,0.507515,-1.307515,0.618408,-1.177117,0.705537,-1.032228,0.765552,-0.878414,0.796148,-0.800000,0.796148,-0.800000,0.800000,1.400000,0.800000,1.403843,0.796157,1.403843,0.796157,$1*%
%AMFreePoly2*
4,1,37,0.603843,0.796157,0.639018,0.796157,0.711114,0.766294,0.766294,0.711114,0.796157,0.639018,0.796157,0.603843,0.800000,0.600000,0.800000,-0.600000,0.796157,-0.603843,0.796157,-0.639018,0.766294,-0.711114,0.711114,-0.766294,0.639018,-0.796157,0.603843,-0.796157,0.600000,-0.800000,0.000000,-0.800000,0.000000,-0.796148,-0.078414,-0.796148,-0.232228,-0.765552,-0.377117,-0.705537,
-0.507515,-0.618408,-0.618408,-0.507515,-0.705537,-0.377117,-0.765552,-0.232228,-0.796148,-0.078414,-0.796148,0.078414,-0.765552,0.232228,-0.705537,0.377117,-0.618408,0.507515,-0.507515,0.618408,-0.377117,0.705537,-0.232228,0.765552,-0.078414,0.796148,0.000000,0.796148,0.000000,0.800000,0.600000,0.800000,0.603843,0.796157,0.603843,0.796157,$1*%
%AMFreePoly3*
4,1,37,0.000000,0.796148,0.078414,0.796148,0.232228,0.765552,0.377117,0.705537,0.507515,0.618408,0.618408,0.507515,0.705537,0.377117,0.765552,0.232228,0.796148,0.078414,0.796148,-0.078414,0.765552,-0.232228,0.705537,-0.377117,0.618408,-0.507515,0.507515,-0.618408,0.377117,-0.705537,0.232228,-0.765552,0.078414,-0.796148,0.000000,-0.796148,0.000000,-0.800000,-0.600000,-0.800000,
-0.603843,-0.796157,-0.639018,-0.796157,-0.711114,-0.766294,-0.766294,-0.711114,-0.796157,-0.639018,-0.796157,-0.603843,-0.800000,-0.600000,-0.800000,0.600000,-0.796157,0.603843,-0.796157,0.639018,-0.766294,0.711114,-0.711114,0.766294,-0.639018,0.796157,-0.603843,0.796157,-0.600000,0.800000,0.000000,0.800000,0.000000,0.796148,0.000000,0.796148,$1*%
G04 Aperture macros list end*
%ADD10C,0.150000*%
%ADD11C,0.120000*%
%ADD12RoundRect,0.250000X0.725000X-0.600000X0.725000X0.600000X-0.725000X0.600000X-0.725000X-0.600000X0*%
%ADD13O,1.950000X1.700000*%
%ADD14C,2.200000*%
%ADD15C,1.850000*%
%ADD16FreePoly0,0.000000*%
%ADD17RoundRect,0.200000X-0.600000X-0.600000X0.600000X-0.600000X0.600000X0.600000X-0.600000X0.600000X0*%
%ADD18RoundRect,0.800000X-0.800000X-0.000010X0.800000X-0.000010X0.800000X0.000010X-0.800000X0.000010X0*%
%ADD19C,1.600000*%
%ADD20FreePoly1,0.000000*%
%ADD21FreePoly2,0.000000*%
%ADD22FreePoly3,0.000000*%
%ADD23C,1.400000*%
%ADD24RoundRect,0.250000X-0.725000X0.600000X-0.725000X-0.600000X0.725000X-0.600000X0.725000X0.600000X0*%
%ADD25RoundRect,0.250001X-0.949999X0.949999X-0.949999X-0.949999X0.949999X-0.949999X0.949999X0.949999X0*%
%ADD26C,2.400000*%
G04 APERTURE END LIST*
D10*
X108954819Y-73083333D02*
X109669104Y-73083333D01*
X109669104Y-73083333D02*
X109811961Y-73130952D01*
X109811961Y-73130952D02*
X109907200Y-73226190D01*
X109907200Y-73226190D02*
X109954819Y-73369047D01*
X109954819Y-73369047D02*
X109954819Y-73464285D01*
X109954819Y-72083333D02*
X109954819Y-72654761D01*
X109954819Y-72369047D02*
X108954819Y-72369047D01*
X108954819Y-72369047D02*
X109097676Y-72464285D01*
X109097676Y-72464285D02*
X109192914Y-72559523D01*
X109192914Y-72559523D02*
X109240533Y-72654761D01*
X101666666Y-114304819D02*
X101333333Y-113828628D01*
X101095238Y-114304819D02*
X101095238Y-113304819D01*
X101095238Y-113304819D02*
X101476190Y-113304819D01*
X101476190Y-113304819D02*
X101571428Y-113352438D01*
X101571428Y-113352438D02*
X101619047Y-113400057D01*
X101619047Y-113400057D02*
X101666666Y-113495295D01*
X101666666Y-113495295D02*
X101666666Y-113638152D01*
X101666666Y-113638152D02*
X101619047Y-113733390D01*
X101619047Y-113733390D02*
X101571428Y-113781009D01*
X101571428Y-113781009D02*
X101476190Y-113828628D01*
X101476190Y-113828628D02*
X101095238Y-113828628D01*
X102095238Y-113781009D02*
X102428571Y-113781009D01*
X102571428Y-114304819D02*
X102095238Y-114304819D01*
X102095238Y-114304819D02*
X102095238Y-113304819D01*
X102095238Y-113304819D02*
X102571428Y-113304819D01*
X103333333Y-113781009D02*
X103000000Y-113781009D01*
X103000000Y-114304819D02*
X103000000Y-113304819D01*
X103000000Y-113304819D02*
X103476190Y-113304819D01*
X104000000Y-113304819D02*
X104000000Y-113542914D01*
X103761905Y-113447676D02*
X104000000Y-113542914D01*
X104000000Y-113542914D02*
X104238095Y-113447676D01*
X103857143Y-113733390D02*
X104000000Y-113542914D01*
X104000000Y-113542914D02*
X104142857Y-113733390D01*
X104761905Y-113304819D02*
X104761905Y-113542914D01*
X104523810Y-113447676D02*
X104761905Y-113542914D01*
X104761905Y-113542914D02*
X105000000Y-113447676D01*
X104619048Y-113733390D02*
X104761905Y-113542914D01*
X104761905Y-113542914D02*
X104904762Y-113733390D01*
X122669104Y-76710839D02*
X122669104Y-76234649D01*
X122954819Y-76806077D02*
X121954819Y-76472744D01*
X121954819Y-76472744D02*
X122954819Y-76139411D01*
X122954819Y-75282268D02*
X122954819Y-75853696D01*
X122954819Y-75567982D02*
X121954819Y-75567982D01*
X121954819Y-75567982D02*
X122097676Y-75663220D01*
X122097676Y-75663220D02*
X122192914Y-75758458D01*
X122192914Y-75758458D02*
X122240533Y-75853696D01*
X138454819Y-109706666D02*
X137978628Y-110039999D01*
X138454819Y-110278094D02*
X137454819Y-110278094D01*
X137454819Y-110278094D02*
X137454819Y-109897142D01*
X137454819Y-109897142D02*
X137502438Y-109801904D01*
X137502438Y-109801904D02*
X137550057Y-109754285D01*
X137550057Y-109754285D02*
X137645295Y-109706666D01*
X137645295Y-109706666D02*
X137788152Y-109706666D01*
X137788152Y-109706666D02*
X137883390Y-109754285D01*
X137883390Y-109754285D02*
X137931009Y-109801904D01*
X137931009Y-109801904D02*
X137978628Y-109897142D01*
X137978628Y-109897142D02*
X137978628Y-110278094D01*
X138454819Y-108754285D02*
X138454819Y-109325713D01*
X138454819Y-109039999D02*
X137454819Y-109039999D01*
X137454819Y-109039999D02*
X137597676Y-109135237D01*
X137597676Y-109135237D02*
X137692914Y-109230475D01*
X137692914Y-109230475D02*
X137740533Y-109325713D01*
X137454819Y-86083333D02*
X138169104Y-86083333D01*
X138169104Y-86083333D02*
X138311961Y-86130952D01*
X138311961Y-86130952D02*
X138407200Y-86226190D01*
X138407200Y-86226190D02*
X138454819Y-86369047D01*
X138454819Y-86369047D02*
X138454819Y-86464285D01*
X137550057Y-85654761D02*
X137502438Y-85607142D01*
X137502438Y-85607142D02*
X137454819Y-85511904D01*
X137454819Y-85511904D02*
X137454819Y-85273809D01*
X137454819Y-85273809D02*
X137502438Y-85178571D01*
X137502438Y-85178571D02*
X137550057Y-85130952D01*
X137550057Y-85130952D02*
X137645295Y-85083333D01*
X137645295Y-85083333D02*
X137740533Y-85083333D01*
X137740533Y-85083333D02*
X137883390Y-85130952D01*
X137883390Y-85130952D02*
X138454819Y-85702380D01*
X138454819Y-85702380D02*
X138454819Y-85083333D01*
X106454819Y-97333333D02*
X107169104Y-97333333D01*
X107169104Y-97333333D02*
X107311961Y-97380952D01*
X107311961Y-97380952D02*
X107407200Y-97476190D01*
X107407200Y-97476190D02*
X107454819Y-97619047D01*
X107454819Y-97619047D02*
X107454819Y-97714285D01*
X106454819Y-96952380D02*
X106454819Y-96333333D01*
X106454819Y-96333333D02*
X106835771Y-96666666D01*
X106835771Y-96666666D02*
X106835771Y-96523809D01*
X106835771Y-96523809D02*
X106883390Y-96428571D01*
X106883390Y-96428571D02*
X106931009Y-96380952D01*
X106931009Y-96380952D02*
X107026247Y-96333333D01*
X107026247Y-96333333D02*
X107264342Y-96333333D01*
X107264342Y-96333333D02*
X107359580Y-96380952D01*
X107359580Y-96380952D02*
X107407200Y-96428571D01*
X107407200Y-96428571D02*
X107454819Y-96523809D01*
X107454819Y-96523809D02*
X107454819Y-96809523D01*
X107454819Y-96809523D02*
X107407200Y-96904761D01*
X107407200Y-96904761D02*
X107359580Y-96952380D01*
X140666666Y-50304819D02*
X140333333Y-49828628D01*
X140095238Y-50304819D02*
X140095238Y-49304819D01*
X140095238Y-49304819D02*
X140476190Y-49304819D01*
X140476190Y-49304819D02*
X140571428Y-49352438D01*
X140571428Y-49352438D02*
X140619047Y-49400057D01*
X140619047Y-49400057D02*
X140666666Y-49495295D01*
X140666666Y-49495295D02*
X140666666Y-49638152D01*
X140666666Y-49638152D02*
X140619047Y-49733390D01*
X140619047Y-49733390D02*
X140571428Y-49781009D01*
X140571428Y-49781009D02*
X140476190Y-49828628D01*
X140476190Y-49828628D02*
X140095238Y-49828628D01*
X141095238Y-49781009D02*
X141428571Y-49781009D01*
X141571428Y-50304819D02*
X141095238Y-50304819D01*
X141095238Y-50304819D02*
X141095238Y-49304819D01*
X141095238Y-49304819D02*
X141571428Y-49304819D01*
X142333333Y-49781009D02*
X142000000Y-49781009D01*
X142000000Y-50304819D02*
X142000000Y-49304819D01*
X142000000Y-49304819D02*
X142476190Y-49304819D01*
X143000000Y-49304819D02*
X143000000Y-49542914D01*
X142761905Y-49447676D02*
X143000000Y-49542914D01*
X143000000Y-49542914D02*
X143238095Y-49447676D01*
X142857143Y-49733390D02*
X143000000Y-49542914D01*
X143000000Y-49542914D02*
X143142857Y-49733390D01*
X143761905Y-49304819D02*
X143761905Y-49542914D01*
X143523810Y-49447676D02*
X143761905Y-49542914D01*
X143761905Y-49542914D02*
X144000000Y-49447676D01*
X143619048Y-49733390D02*
X143761905Y-49542914D01*
X143761905Y-49542914D02*
X143904762Y-49733390D01*
X101666666Y-50304819D02*
X101333333Y-49828628D01*
X101095238Y-50304819D02*
X101095238Y-49304819D01*
X101095238Y-49304819D02*
X101476190Y-49304819D01*
X101476190Y-49304819D02*
X101571428Y-49352438D01*
X101571428Y-49352438D02*
X101619047Y-49400057D01*
X101619047Y-49400057D02*
X101666666Y-49495295D01*
X101666666Y-49495295D02*
X101666666Y-49638152D01*
X101666666Y-49638152D02*
X101619047Y-49733390D01*
X101619047Y-49733390D02*
X101571428Y-49781009D01*
X101571428Y-49781009D02*
X101476190Y-49828628D01*
X101476190Y-49828628D02*
X101095238Y-49828628D01*
X102095238Y-49781009D02*
X102428571Y-49781009D01*
X102571428Y-50304819D02*
X102095238Y-50304819D01*
X102095238Y-50304819D02*
X102095238Y-49304819D01*
X102095238Y-49304819D02*
X102571428Y-49304819D01*
X103333333Y-49781009D02*
X103000000Y-49781009D01*
X103000000Y-50304819D02*
X103000000Y-49304819D01*
X103000000Y-49304819D02*
X103476190Y-49304819D01*
X104000000Y-49304819D02*
X104000000Y-49542914D01*
X103761905Y-49447676D02*
X104000000Y-49542914D01*
X104000000Y-49542914D02*
X104238095Y-49447676D01*
X103857143Y-49733390D02*
X104000000Y-49542914D01*
X104000000Y-49542914D02*
X104142857Y-49733390D01*
X104761905Y-49304819D02*
X104761905Y-49542914D01*
X104523810Y-49447676D02*
X104761905Y-49542914D01*
X104761905Y-49542914D02*
X105000000Y-49447676D01*
X104619048Y-49733390D02*
X104761905Y-49542914D01*
X104761905Y-49542914D02*
X104904762Y-49733390D01*
X140666666Y-114304819D02*
X140333333Y-113828628D01*
X140095238Y-114304819D02*
X140095238Y-113304819D01*
X140095238Y-113304819D02*
X140476190Y-113304819D01*
X140476190Y-113304819D02*
X140571428Y-113352438D01*
X140571428Y-113352438D02*
X140619047Y-113400057D01*
X140619047Y-113400057D02*
X140666666Y-113495295D01*
X140666666Y-113495295D02*
X140666666Y-113638152D01*
X140666666Y-113638152D02*
X140619047Y-113733390D01*
X140619047Y-113733390D02*
X140571428Y-113781009D01*
X140571428Y-113781009D02*
X140476190Y-113828628D01*
X140476190Y-113828628D02*
X140095238Y-113828628D01*
X141095238Y-113781009D02*
X141428571Y-113781009D01*
X141571428Y-114304819D02*
X141095238Y-114304819D01*
X141095238Y-114304819D02*
X141095238Y-113304819D01*
X141095238Y-113304819D02*
X141571428Y-113304819D01*
X142333333Y-113781009D02*
X142000000Y-113781009D01*
X142000000Y-114304819D02*
X142000000Y-113304819D01*
X142000000Y-113304819D02*
X142476190Y-113304819D01*
X143000000Y-113304819D02*
X143000000Y-113542914D01*
X142761905Y-113447676D02*
X143000000Y-113542914D01*
X143000000Y-113542914D02*
X143238095Y-113447676D01*
X142857143Y-113733390D02*
X143000000Y-113542914D01*
X143000000Y-113542914D02*
X143142857Y-113733390D01*
X143761905Y-113304819D02*
X143761905Y-113542914D01*
X143523810Y-113447676D02*
X143761905Y-113542914D01*
X143761905Y-113542914D02*
X144000000Y-113447676D01*
X143619048Y-113733390D02*
X143761905Y-113542914D01*
X143761905Y-113542914D02*
X143904762Y-113733390D01*
X127859580Y-108166666D02*
X127907200Y-108214285D01*
X127907200Y-108214285D02*
X127954819Y-108357142D01*
X127954819Y-108357142D02*
X127954819Y-108452380D01*
X127954819Y-108452380D02*
X127907200Y-108595237D01*
X127907200Y-108595237D02*
X127811961Y-108690475D01*
X127811961Y-108690475D02*
X127716723Y-108738094D01*
X127716723Y-108738094D02*
X127526247Y-108785713D01*
X127526247Y-108785713D02*
X127383390Y-108785713D01*
X127383390Y-108785713D02*
X127192914Y-108738094D01*
X127192914Y-108738094D02*
X127097676Y-108690475D01*
X127097676Y-108690475D02*
X127002438Y-108595237D01*
X127002438Y-108595237D02*
X126954819Y-108452380D01*
X126954819Y-108452380D02*
X126954819Y-108357142D01*
X126954819Y-108357142D02*
X127002438Y-108214285D01*
X127002438Y-108214285D02*
X127050057Y-108166666D01*
X127050057Y-107785713D02*
X127002438Y-107738094D01*
X127002438Y-107738094D02*
X126954819Y-107642856D01*
X126954819Y-107642856D02*
X126954819Y-107404761D01*
X126954819Y-107404761D02*
X127002438Y-107309523D01*
X127002438Y-107309523D02*
X127050057Y-107261904D01*
X127050057Y-107261904D02*
X127145295Y-107214285D01*
X127145295Y-107214285D02*
X127240533Y-107214285D01*
X127240533Y-107214285D02*
X127383390Y-107261904D01*
X127383390Y-107261904D02*
X127954819Y-107833332D01*
X127954819Y-107833332D02*
X127954819Y-107214285D01*
X121359580Y-109166666D02*
X121407200Y-109214285D01*
X121407200Y-109214285D02*
X121454819Y-109357142D01*
X121454819Y-109357142D02*
X121454819Y-109452380D01*
X121454819Y-109452380D02*
X121407200Y-109595237D01*
X121407200Y-109595237D02*
X121311961Y-109690475D01*
X121311961Y-109690475D02*
X121216723Y-109738094D01*
X121216723Y-109738094D02*
X121026247Y-109785713D01*
X121026247Y-109785713D02*
X120883390Y-109785713D01*
X120883390Y-109785713D02*
X120692914Y-109738094D01*
X120692914Y-109738094D02*
X120597676Y-109690475D01*
X120597676Y-109690475D02*
X120502438Y-109595237D01*
X120502438Y-109595237D02*
X120454819Y-109452380D01*
X120454819Y-109452380D02*
X120454819Y-109357142D01*
X120454819Y-109357142D02*
X120502438Y-109214285D01*
X120502438Y-109214285D02*
X120550057Y-109166666D01*
X121454819Y-108214285D02*
X121454819Y-108785713D01*
X121454819Y-108499999D02*
X120454819Y-108499999D01*
X120454819Y-108499999D02*
X120597676Y-108595237D01*
X120597676Y-108595237D02*
X120692914Y-108690475D01*
X120692914Y-108690475D02*
X120740533Y-108785713D01*
D11*
%TO.C,J1*%
X106290000Y-56390000D02*
X106290000Y-89110000D01*
X106290000Y-89110000D02*
X110310000Y-89110000D01*
X106790000Y-56890000D02*
X108000000Y-56890000D01*
X106790000Y-88610000D02*
X106790000Y-56890000D01*
X108000000Y-56890000D02*
X108000000Y-56390000D01*
X108000000Y-88610000D02*
X106790000Y-88610000D01*
X108000000Y-89110000D02*
X108000000Y-88610000D01*
X108110000Y-89410000D02*
X110610000Y-89410000D01*
X108810000Y-56390000D02*
X108810000Y-57390000D01*
X108810000Y-57390000D02*
X110310000Y-57390000D01*
X108810000Y-88110000D02*
X110310000Y-88110000D01*
X108810000Y-89110000D02*
X108810000Y-88110000D01*
X110310000Y-56390000D02*
X106290000Y-56390000D01*
X110310000Y-89110000D02*
X110310000Y-56390000D01*
X110610000Y-89410000D02*
X110610000Y-86910000D01*
%TO.C,A1*%
X111965000Y-52900000D02*
X111485000Y-52900000D01*
X111965000Y-52900000D02*
X111965000Y-53320000D01*
X111965000Y-55440000D02*
X111965000Y-55860000D01*
X111965000Y-57980000D02*
X111965000Y-58400000D01*
X111965000Y-60520000D02*
X111965000Y-60940000D01*
X111965000Y-63060000D02*
X111965000Y-63480000D01*
X111965000Y-65600000D02*
X111965000Y-66020000D01*
X111965000Y-68140000D02*
X111965000Y-68560000D01*
X111965000Y-70680000D02*
X111965000Y-71100000D01*
X111965000Y-73220000D02*
X111965000Y-73640000D01*
X111965000Y-75760000D02*
X111965000Y-76180000D01*
X111965000Y-78300000D02*
X111965000Y-78720000D01*
X111965000Y-80840000D02*
X111965000Y-81260000D01*
X111965000Y-83380000D02*
X111965000Y-83800000D01*
X111965000Y-85920000D02*
X111965000Y-86340000D01*
X111965000Y-88460000D02*
X111965000Y-88880000D01*
X111965000Y-91000000D02*
X111965000Y-91420000D01*
X111965000Y-93540000D02*
X111965000Y-93960000D01*
X111965000Y-96080000D02*
X111965000Y-96500000D01*
X111965000Y-98620000D02*
X111965000Y-99040000D01*
X111995324Y-50780000D02*
X111485000Y-50780000D01*
X112305000Y-50780063D02*
X112305000Y-50423000D01*
X112305000Y-52900000D02*
X112305000Y-53320000D01*
X112305000Y-55440000D02*
X112305000Y-55860000D01*
X112305000Y-57980000D02*
X112305000Y-58400000D01*
X112305000Y-60520000D02*
X112305000Y-60940000D01*
X112305000Y-63060000D02*
X112305000Y-63480000D01*
X112305000Y-65600000D02*
X112305000Y-66020000D01*
X112305000Y-68140000D02*
X112305000Y-68560000D01*
X112305000Y-70680000D02*
X112305000Y-71100000D01*
X112305000Y-73220000D02*
X112305000Y-73640000D01*
X112305000Y-75760000D02*
X112305000Y-76180000D01*
X112305000Y-78300000D02*
X112305000Y-78720000D01*
X112305000Y-80840000D02*
X112305000Y-81260000D01*
X112305000Y-83380000D02*
X112305000Y-83800000D01*
X112305000Y-85920000D02*
X112305000Y-86340000D01*
X112305000Y-88460000D02*
X112305000Y-88880000D01*
X112305000Y-91000000D02*
X112305000Y-91420000D01*
X112305000Y-93540000D02*
X112305000Y-93960000D01*
X112305000Y-96080000D02*
X112305000Y-96500000D01*
X112305000Y-98620000D02*
X112305000Y-99040000D01*
X112305000Y-101159937D02*
X112305000Y-101517000D01*
X112575000Y-50360000D02*
X115065000Y-50360000D01*
X112575000Y-101580000D02*
X116412939Y-101580000D01*
X115065000Y-50360000D02*
X115065000Y-51273520D01*
X115065000Y-50360000D02*
X116412940Y-50360000D01*
X115065000Y-53666480D02*
X115065000Y-98273520D01*
X115065000Y-100666480D02*
X115065000Y-101580000D01*
X117337061Y-50360000D02*
X118340000Y-50360000D01*
X118340000Y-50360000D02*
X126810000Y-50360000D01*
X118675000Y-50360000D02*
X118675000Y-51276000D01*
X118675000Y-53664000D02*
X118675000Y-54880000D01*
X118675000Y-54880000D02*
X118971090Y-54880000D01*
X118975000Y-101580000D02*
X117337061Y-101580000D01*
X121328910Y-54880000D02*
X123821090Y-54880000D01*
X126175000Y-101580000D02*
X118975000Y-101580000D01*
X126178910Y-54880000D02*
X126475000Y-54880000D01*
X126475000Y-50360000D02*
X126475000Y-51276000D01*
X126475000Y-53664000D02*
X126475000Y-54880000D01*
X126810000Y-50360000D02*
X127812939Y-50360000D01*
X127812939Y-101580000D02*
X126175000Y-101580000D01*
X128737061Y-50360000D02*
X130085000Y-50360000D01*
X128737061Y-101580000D02*
X132575000Y-101580000D01*
X130085000Y-50360000D02*
X130085000Y-51273520D01*
X130085000Y-53666480D02*
X130085000Y-98273520D01*
X130085000Y-100666480D02*
X130085000Y-101580000D01*
X132575000Y-50360000D02*
X130085000Y-50360000D01*
X132845000Y-50780063D02*
X132845000Y-50423000D01*
X132845000Y-52900000D02*
X132845000Y-53320000D01*
X132845000Y-55440000D02*
X132845000Y-55860000D01*
X132845000Y-57980000D02*
X132845000Y-58400000D01*
X132845000Y-60520000D02*
X132845000Y-60940000D01*
X132845000Y-63060000D02*
X132845000Y-63480000D01*
X132845000Y-65600000D02*
X132845000Y-66020000D01*
X132845000Y-68140000D02*
X132845000Y-68560000D01*
X132845000Y-70680000D02*
X132845000Y-71100000D01*
X132845000Y-73220000D02*
X132845000Y-73640000D01*
X132845000Y-75760000D02*
X132845000Y-76180000D01*
X132845000Y-78300000D02*
X132845000Y-78720000D01*
X132845000Y-80840000D02*
X132845000Y-81260000D01*
X132845000Y-83380000D02*
X132845000Y-83800000D01*
X132845000Y-85920000D02*
X132845000Y-86340000D01*
X132845000Y-88460000D02*
X132845000Y-88880000D01*
X132845000Y-91000000D02*
X132845000Y-91420000D01*
X132845000Y-93540000D02*
X132845000Y-93960000D01*
X132845000Y-96080000D02*
X132845000Y-96500000D01*
X132845000Y-98620000D02*
X132845000Y-99040000D01*
X132845000Y-101159937D02*
X132845000Y-101517000D01*
X133185000Y-52900000D02*
X133185000Y-53320000D01*
X133185000Y-55440000D02*
X133185000Y-55860000D01*
X133185000Y-57980000D02*
X133185000Y-58400000D01*
X133185000Y-60520000D02*
X133185000Y-60940000D01*
X133185000Y-63060000D02*
X133185000Y-63480000D01*
X133185000Y-65600000D02*
X133185000Y-66020000D01*
X133185000Y-68140000D02*
X133185000Y-68560000D01*
X133185000Y-70680000D02*
X133185000Y-71100000D01*
X133185000Y-73220000D02*
X133185000Y-73640000D01*
X133185000Y-75760000D02*
X133185000Y-76180000D01*
X133185000Y-78300000D02*
X133185000Y-78720000D01*
X133185000Y-80840000D02*
X133185000Y-81260000D01*
X133185000Y-83380000D02*
X133185000Y-83800000D01*
X133185000Y-85920000D02*
X133185000Y-86340000D01*
X133185000Y-88460000D02*
X133185000Y-88880000D01*
X133185000Y-91000000D02*
X133185000Y-91420000D01*
X133185000Y-93540000D02*
X133185000Y-93960000D01*
X133185000Y-96080000D02*
X133185000Y-96500000D01*
X133185000Y-98620000D02*
X133185000Y-99040000D01*
X111995324Y-50780000D02*
G75*
G02*
X112575000Y-50360000I579692J-190051D01*
G01*
X112575000Y-101580000D02*
G75*
G02*
X111995324Y-101159937I1J610002D01*
G01*
X132575000Y-50360000D02*
G75*
G02*
X133154676Y-50780063I0J-610000D01*
G01*
X133154676Y-101159937D02*
G75*
G02*
X132575000Y-101580069I-579676J189837D01*
G01*
%TO.C,R1*%
X135080000Y-107620000D02*
X135080000Y-111460000D01*
X136920000Y-107620000D02*
X136920000Y-111460000D01*
%TO.C,J2*%
X134790000Y-69390000D02*
X134790000Y-102110000D01*
X134790000Y-102110000D02*
X138810000Y-102110000D01*
X135290000Y-69890000D02*
X136500000Y-69890000D01*
X135290000Y-101610000D02*
X135290000Y-69890000D01*
X136500000Y-69890000D02*
X136500000Y-69390000D01*
X136500000Y-101610000D02*
X135290000Y-101610000D01*
X136500000Y-102110000D02*
X136500000Y-101610000D01*
X136610000Y-102410000D02*
X139110000Y-102410000D01*
X137310000Y-69390000D02*
X137310000Y-70390000D01*
X137310000Y-70390000D02*
X138810000Y-70390000D01*
X137310000Y-101110000D02*
X138810000Y-101110000D01*
X137310000Y-102110000D02*
X137310000Y-101110000D01*
X138810000Y-69390000D02*
X134790000Y-69390000D01*
X138810000Y-102110000D02*
X138810000Y-69390000D01*
X139110000Y-102410000D02*
X139110000Y-99910000D01*
%TO.C,J3*%
X105890000Y-91590000D02*
X105890000Y-94090000D01*
X106190000Y-91890000D02*
X106190000Y-102110000D01*
X106190000Y-102110000D02*
X110210000Y-102110000D01*
X107690000Y-91890000D02*
X107690000Y-92890000D01*
X107690000Y-92890000D02*
X106190000Y-92890000D01*
X107690000Y-101110000D02*
X106190000Y-101110000D01*
X107690000Y-102110000D02*
X107690000Y-101110000D01*
X108390000Y-91590000D02*
X105890000Y-91590000D01*
X108500000Y-91890000D02*
X108500000Y-92390000D01*
X108500000Y-92390000D02*
X109710000Y-92390000D01*
X108500000Y-101610000D02*
X108500000Y-102110000D01*
X109710000Y-92390000D02*
X109710000Y-101610000D01*
X109710000Y-101610000D02*
X108500000Y-101610000D01*
X110210000Y-91890000D02*
X106190000Y-91890000D01*
X110210000Y-102110000D02*
X110210000Y-91890000D01*
%TO.C,C2*%
X123630000Y-106880000D02*
X123967000Y-106880000D01*
X123630000Y-112120000D02*
X123630000Y-106880000D01*
X123967000Y-112120000D02*
X123630000Y-112120000D01*
X126033000Y-106880000D02*
X126370000Y-106880000D01*
X126370000Y-106880000D02*
X126370000Y-112120000D01*
X126370000Y-112120000D02*
X126033000Y-112120000D01*
%TO.C,C1*%
X112060000Y-110580000D02*
X107009000Y-110580000D01*
X112060000Y-110620000D02*
X107015000Y-110620000D01*
X112060000Y-110660000D02*
X107022000Y-110660000D01*
X112060000Y-110700000D02*
X107030000Y-110700000D01*
X112060000Y-110740000D02*
X107037000Y-110740000D01*
X112060000Y-110780000D02*
X107045000Y-110780000D01*
X112060000Y-110820000D02*
X107053000Y-110820000D01*
X112060000Y-110860000D02*
X107061000Y-110860000D01*
X112060000Y-110900000D02*
X107070000Y-110900000D01*
X112060000Y-110940000D02*
X107079000Y-110940000D01*
X112060000Y-110980000D02*
X107088000Y-110980000D01*
X112060000Y-111020000D02*
X107097000Y-111020000D01*
X112060000Y-111060000D02*
X107106000Y-111060000D01*
X112060000Y-111100000D02*
X107116000Y-111100000D01*
X112060000Y-111140000D02*
X107126000Y-111140000D01*
X112060000Y-111180000D02*
X107137000Y-111180000D01*
X112060000Y-111220000D02*
X107147000Y-111220000D01*
X112060000Y-111260000D02*
X107158000Y-111260000D01*
X112060000Y-111300000D02*
X107169000Y-111300000D01*
X112060000Y-111340000D02*
X107181000Y-111340000D01*
X112060000Y-111380000D02*
X107193000Y-111380000D01*
X112060000Y-111420000D02*
X107205000Y-111420000D01*
X112060000Y-111460000D02*
X107217000Y-111460000D01*
X112060000Y-111500000D02*
X107229000Y-111500000D01*
X112060000Y-111540000D02*
X107242000Y-111540000D01*
X112060000Y-111580000D02*
X107255000Y-111580000D01*
X112060000Y-111620000D02*
X107269000Y-111620000D01*
X112060000Y-111660000D02*
X107282000Y-111660000D01*
X112060000Y-111700000D02*
X107296000Y-111700000D01*
X112060000Y-111740000D02*
X107310000Y-111740000D01*
X112060000Y-111780000D02*
X107325000Y-111780000D01*
X112060000Y-111820000D02*
X107340000Y-111820000D01*
X112060000Y-111860000D02*
X107355000Y-111860000D01*
X112060000Y-111900000D02*
X107370000Y-111900000D01*
X112060000Y-111940000D02*
X107386000Y-111940000D01*
X112060000Y-111980000D02*
X107402000Y-111980000D01*
X112060000Y-112020000D02*
X107418000Y-112020000D01*
X112060000Y-112060000D02*
X107435000Y-112060000D01*
X112060000Y-112100000D02*
X107452000Y-112100000D01*
X112060000Y-112140000D02*
X107469000Y-112140000D01*
X112060000Y-112180000D02*
X107487000Y-112180000D01*
X112060000Y-112220000D02*
X107505000Y-112220000D01*
X112060000Y-112260000D02*
X107523000Y-112260000D01*
X112060000Y-112300000D02*
X107541000Y-112300000D01*
X112060000Y-112340000D02*
X107560000Y-112340000D01*
X112060000Y-112380000D02*
X107579000Y-112380000D01*
X112060000Y-112420000D02*
X107599000Y-112420000D01*
X112060000Y-112460000D02*
X107619000Y-112460000D01*
X112060000Y-112500000D02*
X107639000Y-112500000D01*
X112060000Y-112540000D02*
X107659000Y-112540000D01*
X112060000Y-112580000D02*
X107680000Y-112580000D01*
X112060000Y-112620000D02*
X107701000Y-112620000D01*
X112060000Y-112660000D02*
X107723000Y-112660000D01*
X112060000Y-112700000D02*
X107745000Y-112700000D01*
X112060000Y-112740000D02*
X107767000Y-112740000D01*
X112060000Y-112780000D02*
X107790000Y-112780000D01*
X112060000Y-112820000D02*
X107813000Y-112820000D01*
X112060000Y-112860000D02*
X107836000Y-112860000D01*
X112060000Y-112900000D02*
X107860000Y-112900000D01*
X112060000Y-112940000D02*
X107884000Y-112940000D01*
X112060000Y-112980000D02*
X107908000Y-112980000D01*
X112060000Y-113020000D02*
X107933000Y-113020000D01*
X112060000Y-113060000D02*
X107959000Y-113060000D01*
X112060000Y-113100000D02*
X107984000Y-113100000D01*
X112060000Y-113140000D02*
X108011000Y-113140000D01*
X112060000Y-113180000D02*
X108037000Y-113180000D01*
X112060000Y-113220000D02*
X108064000Y-113220000D01*
X112060000Y-113260000D02*
X108091000Y-113260000D01*
X112060000Y-113300000D02*
X108119000Y-113300000D01*
X112060000Y-113340000D02*
X108148000Y-113340000D01*
X112060000Y-113380000D02*
X108176000Y-113380000D01*
X112060000Y-113420000D02*
X108205000Y-113420000D01*
X113974000Y-116100000D02*
X113026000Y-116100000D01*
X114349000Y-116060000D02*
X112651000Y-116060000D01*
X114606000Y-116020000D02*
X112394000Y-116020000D01*
X114814000Y-115980000D02*
X112186000Y-115980000D01*
X114993000Y-115940000D02*
X112007000Y-115940000D01*
X115152000Y-115900000D02*
X111848000Y-115900000D01*
X115297000Y-115860000D02*
X111703000Y-115860000D01*
X115430000Y-115820000D02*
X111570000Y-115820000D01*
X115554000Y-115780000D02*
X111446000Y-115780000D01*
X115671000Y-115740000D02*
X111329000Y-115740000D01*
X115780000Y-115700000D02*
X111220000Y-115700000D01*
X115885000Y-115660000D02*
X111115000Y-115660000D01*
X115984000Y-115620000D02*
X111016000Y-115620000D01*
X116079000Y-115580000D02*
X110921000Y-115580000D01*
X116170000Y-115540000D02*
X110830000Y-115540000D01*
X116257000Y-115500000D02*
X110743000Y-115500000D01*
X116341000Y-115460000D02*
X110659000Y-115460000D01*
X116423000Y-115420000D02*
X110577000Y-115420000D01*
X116501000Y-115380000D02*
X110499000Y-115380000D01*
X116577000Y-115340000D02*
X110423000Y-115340000D01*
X116651000Y-115300000D02*
X110349000Y-115300000D01*
X116723000Y-115260000D02*
X110277000Y-115260000D01*
X116793000Y-115220000D02*
X110207000Y-115220000D01*
X116860000Y-115180000D02*
X110140000Y-115180000D01*
X116926000Y-115140000D02*
X110074000Y-115140000D01*
X116990000Y-115100000D02*
X110010000Y-115100000D01*
X117053000Y-115060000D02*
X109947000Y-115060000D01*
X117114000Y-115020000D02*
X109886000Y-115020000D01*
X117174000Y-114980000D02*
X109826000Y-114980000D01*
X117215000Y-102415431D02*
X117215000Y-103715431D01*
X117232000Y-114940000D02*
X109768000Y-114940000D01*
X117289000Y-114900000D02*
X109711000Y-114900000D01*
X117345000Y-114860000D02*
X109655000Y-114860000D01*
X117400000Y-114820000D02*
X109600000Y-114820000D01*
X117453000Y-114780000D02*
X109547000Y-114780000D01*
X117506000Y-114740000D02*
X109494000Y-114740000D01*
X117557000Y-114700000D02*
X109443000Y-114700000D01*
X117607000Y-114660000D02*
X109393000Y-114660000D01*
X117656000Y-114620000D02*
X109344000Y-114620000D01*
X117705000Y-114580000D02*
X109295000Y-114580000D01*
X117752000Y-114540000D02*
X109248000Y-114540000D01*
X117799000Y-114500000D02*
X109201000Y-114500000D01*
X117844000Y-114460000D02*
X109156000Y-114460000D01*
X117865000Y-103065431D02*
X116565000Y-103065431D01*
X117889000Y-114420000D02*
X109111000Y-114420000D01*
X117933000Y-114380000D02*
X109067000Y-114380000D01*
X117977000Y-114340000D02*
X109023000Y-114340000D01*
X118019000Y-114300000D02*
X108981000Y-114300000D01*
X118061000Y-114260000D02*
X108939000Y-114260000D01*
X118102000Y-114220000D02*
X108898000Y-114220000D01*
X118142000Y-114180000D02*
X108858000Y-114180000D01*
X118182000Y-114140000D02*
X108818000Y-114140000D01*
X118221000Y-114100000D02*
X108779000Y-114100000D01*
X118259000Y-114060000D02*
X108741000Y-114060000D01*
X118297000Y-114020000D02*
X108703000Y-114020000D01*
X118334000Y-113980000D02*
X108666000Y-113980000D01*
X118370000Y-113940000D02*
X108630000Y-113940000D01*
X118406000Y-113900000D02*
X108594000Y-113900000D01*
X118441000Y-113860000D02*
X108559000Y-113860000D01*
X118476000Y-113820000D02*
X108524000Y-113820000D01*
X118510000Y-113780000D02*
X108490000Y-113780000D01*
X118544000Y-113740000D02*
X108456000Y-113740000D01*
X118577000Y-113700000D02*
X108423000Y-113700000D01*
X118610000Y-113660000D02*
X108390000Y-113660000D01*
X118642000Y-113620000D02*
X108358000Y-113620000D01*
X118673000Y-113580000D02*
X108327000Y-113580000D01*
X118704000Y-113540000D02*
X108296000Y-113540000D01*
X118735000Y-113500000D02*
X108265000Y-113500000D01*
X118765000Y-113460000D02*
X108235000Y-113460000D01*
X118795000Y-113420000D02*
X114940000Y-113420000D01*
X118824000Y-113380000D02*
X114940000Y-113380000D01*
X118852000Y-113340000D02*
X114940000Y-113340000D01*
X118881000Y-113300000D02*
X114940000Y-113300000D01*
X118909000Y-113260000D02*
X114940000Y-113260000D01*
X118936000Y-113220000D02*
X114940000Y-113220000D01*
X118963000Y-113180000D02*
X114940000Y-113180000D01*
X118989000Y-113140000D02*
X114940000Y-113140000D01*
X119016000Y-113100000D02*
X114940000Y-113100000D01*
X119041000Y-113060000D02*
X114940000Y-113060000D01*
X119067000Y-113020000D02*
X114940000Y-113020000D01*
X119092000Y-112980000D02*
X114940000Y-112980000D01*
X119116000Y-112940000D02*
X114940000Y-112940000D01*
X119140000Y-112900000D02*
X114940000Y-112900000D01*
X119164000Y-112860000D02*
X114940000Y-112860000D01*
X119187000Y-112820000D02*
X114940000Y-112820000D01*
X119210000Y-112780000D02*
X114940000Y-112780000D01*
X119233000Y-112740000D02*
X114940000Y-112740000D01*
X119255000Y-112700000D02*
X114940000Y-112700000D01*
X119277000Y-112660000D02*
X114940000Y-112660000D01*
X119299000Y-112620000D02*
X114940000Y-112620000D01*
X119320000Y-112580000D02*
X114940000Y-112580000D01*
X119341000Y-112540000D02*
X114940000Y-112540000D01*
X119361000Y-112500000D02*
X114940000Y-112500000D01*
X119381000Y-112460000D02*
X114940000Y-112460000D01*
X119401000Y-112420000D02*
X114940000Y-112420000D01*
X119421000Y-112380000D02*
X114940000Y-112380000D01*
X119440000Y-112340000D02*
X114940000Y-112340000D01*
X119459000Y-112300000D02*
X114940000Y-112300000D01*
X119477000Y-112260000D02*
X114940000Y-112260000D01*
X119495000Y-112220000D02*
X114940000Y-112220000D01*
X119513000Y-112180000D02*
X114940000Y-112180000D01*
X119531000Y-112140000D02*
X114940000Y-112140000D01*
X119548000Y-112100000D02*
X114940000Y-112100000D01*
X119565000Y-112060000D02*
X114940000Y-112060000D01*
X119582000Y-112020000D02*
X114940000Y-112020000D01*
X119598000Y-111980000D02*
X114940000Y-111980000D01*
X119614000Y-111940000D02*
X114940000Y-111940000D01*
X119630000Y-111900000D02*
X114940000Y-111900000D01*
X119645000Y-111860000D02*
X114940000Y-111860000D01*
X119660000Y-111820000D02*
X114940000Y-111820000D01*
X119675000Y-111780000D02*
X114940000Y-111780000D01*
X119690000Y-111740000D02*
X114940000Y-111740000D01*
X119704000Y-111700000D02*
X114940000Y-111700000D01*
X119718000Y-111660000D02*
X114940000Y-111660000D01*
X119731000Y-111620000D02*
X114940000Y-111620000D01*
X119745000Y-111580000D02*
X114940000Y-111580000D01*
X119758000Y-111540000D02*
X114940000Y-111540000D01*
X119771000Y-111500000D02*
X114940000Y-111500000D01*
X119783000Y-111460000D02*
X114940000Y-111460000D01*
X119795000Y-111420000D02*
X114940000Y-111420000D01*
X119807000Y-111380000D02*
X114940000Y-111380000D01*
X119819000Y-111340000D02*
X114940000Y-111340000D01*
X119831000Y-111300000D02*
X114940000Y-111300000D01*
X119842000Y-111260000D02*
X114940000Y-111260000D01*
X119853000Y-111220000D02*
X114940000Y-111220000D01*
X119863000Y-111180000D02*
X114940000Y-111180000D01*
X119874000Y-111140000D02*
X114940000Y-111140000D01*
X119884000Y-111100000D02*
X114940000Y-111100000D01*
X119894000Y-111060000D02*
X114940000Y-111060000D01*
X119903000Y-111020000D02*
X114940000Y-111020000D01*
X119912000Y-110980000D02*
X114940000Y-110980000D01*
X119921000Y-110940000D02*
X114940000Y-110940000D01*
X119930000Y-110900000D02*
X114940000Y-110900000D01*
X119939000Y-110860000D02*
X114940000Y-110860000D01*
X119947000Y-110820000D02*
X114940000Y-110820000D01*
X119955000Y-110780000D02*
X114940000Y-110780000D01*
X119963000Y-110740000D02*
X114940000Y-110740000D01*
X119970000Y-110700000D02*
X114940000Y-110700000D01*
X119978000Y-110660000D02*
X114940000Y-110660000D01*
X119985000Y-110620000D02*
X114940000Y-110620000D01*
X119991000Y-110580000D02*
X114940000Y-110580000D01*
X119998000Y-110540000D02*
X107002000Y-110540000D01*
X120004000Y-110500000D02*
X106996000Y-110500000D01*
X120010000Y-110460000D02*
X106990000Y-110460000D01*
X120016000Y-110420000D02*
X106984000Y-110420000D01*
X120021000Y-110380000D02*
X106979000Y-110380000D01*
X120026000Y-110340000D02*
X106974000Y-110340000D01*
X120031000Y-110300000D02*
X106969000Y-110300000D01*
X120036000Y-110260000D02*
X106964000Y-110260000D01*
X120041000Y-110220000D02*
X106959000Y-110220000D01*
X120045000Y-110180000D02*
X106955000Y-110180000D01*
X120049000Y-110140000D02*
X106951000Y-110140000D01*
X120053000Y-110100000D02*
X106947000Y-110100000D01*
X120056000Y-110060000D02*
X106944000Y-110060000D01*
X120060000Y-110020000D02*
X106940000Y-110020000D01*
X120063000Y-109980000D02*
X106937000Y-109980000D01*
X120065000Y-109940000D02*
X106935000Y-109940000D01*
X120068000Y-109900000D02*
X106932000Y-109900000D01*
X120070000Y-109860000D02*
X106930000Y-109860000D01*
X120072000Y-109820000D02*
X106928000Y-109820000D01*
X120074000Y-109780000D02*
X106926000Y-109780000D01*
X120076000Y-109740000D02*
X106924000Y-109740000D01*
X120077000Y-109700000D02*
X106923000Y-109700000D01*
X120078000Y-109660000D02*
X106922000Y-109660000D01*
X120079000Y-109620000D02*
X106921000Y-109620000D01*
X120080000Y-109500000D02*
X106920000Y-109500000D01*
X120080000Y-109540000D02*
X106920000Y-109540000D01*
X120080000Y-109580000D02*
X106920000Y-109580000D01*
X120120000Y-109500000D02*
G75*
G02*
X106880000Y-109500000I-6620000J0D01*
G01*
X106880000Y-109500000D02*
G75*
G02*
X120120000Y-109500000I6620000J0D01*
G01*
%TD*%
%LPC*%
D12*
%TO.C,J1*%
X108000000Y-86500000D03*
D13*
X108000000Y-84000000D03*
X108000000Y-81500000D03*
X108000000Y-79000000D03*
X108000000Y-76500000D03*
X108000000Y-74000000D03*
X108000000Y-71500000D03*
X108000000Y-69000000D03*
X108000000Y-66500000D03*
X108000000Y-64000000D03*
X108000000Y-61500000D03*
X108000000Y-59000000D03*
%TD*%
D14*
%TO.C,REF\u002A\u002A*%
X103000000Y-117000000D03*
%TD*%
%TO.C,A1*%
X119850000Y-51970000D03*
D15*
X120150000Y-55000000D03*
X125000000Y-55000000D03*
D14*
X125300000Y-51970000D03*
D16*
X112885000Y-51840000D03*
D17*
X113685000Y-51840000D03*
D18*
X112885000Y-54380000D03*
D19*
X113685000Y-54380000D03*
D20*
X112885000Y-56920000D03*
D21*
X113685000Y-56920000D03*
D18*
X112885000Y-59460000D03*
D19*
X113685000Y-59460000D03*
D18*
X112885000Y-62000000D03*
D19*
X113685000Y-62000000D03*
D18*
X112885000Y-64540000D03*
D19*
X113685000Y-64540000D03*
D18*
X112885000Y-67080000D03*
D19*
X113685000Y-67080000D03*
D20*
X112885000Y-69620000D03*
D21*
X113685000Y-69620000D03*
D18*
X112885000Y-72160000D03*
D19*
X113685000Y-72160000D03*
D18*
X112885000Y-74700000D03*
D19*
X113685000Y-74700000D03*
D18*
X112885000Y-77240000D03*
D19*
X113685000Y-77240000D03*
D18*
X112885000Y-79780000D03*
D19*
X113685000Y-79780000D03*
D20*
X112885000Y-82320000D03*
D21*
X113685000Y-82320000D03*
D18*
X112885000Y-84860000D03*
D19*
X113685000Y-84860000D03*
D18*
X112885000Y-87400000D03*
D19*
X113685000Y-87400000D03*
D18*
X112885000Y-89940000D03*
D19*
X113685000Y-89940000D03*
D18*
X112885000Y-92480000D03*
D19*
X113685000Y-92480000D03*
D20*
X112885000Y-95020000D03*
D21*
X113685000Y-95020000D03*
D18*
X112885000Y-97560000D03*
D19*
X113685000Y-97560000D03*
D18*
X112885000Y-100100000D03*
D19*
X113685000Y-100100000D03*
X131465000Y-100100000D03*
D18*
X132265000Y-100100000D03*
D19*
X131465000Y-97560000D03*
D18*
X132265000Y-97560000D03*
D22*
X131465000Y-95020000D03*
D16*
X132265000Y-95020000D03*
D19*
X131465000Y-92480000D03*
D18*
X132265000Y-92480000D03*
D19*
X131465000Y-89940000D03*
D18*
X132265000Y-89940000D03*
D19*
X131465000Y-87400000D03*
D18*
X132265000Y-87400000D03*
D19*
X131465000Y-84860000D03*
D18*
X132265000Y-84860000D03*
D22*
X131465000Y-82320000D03*
D16*
X132265000Y-82320000D03*
D19*
X131465000Y-79780000D03*
D18*
X132265000Y-79780000D03*
D19*
X131465000Y-77240000D03*
D18*
X132265000Y-77240000D03*
D19*
X131465000Y-74700000D03*
D18*
X132265000Y-74700000D03*
D19*
X131465000Y-72160000D03*
D18*
X132265000Y-72160000D03*
D22*
X131465000Y-69620000D03*
D16*
X132265000Y-69620000D03*
D19*
X131465000Y-67080000D03*
D18*
X132265000Y-67080000D03*
D19*
X131465000Y-64540000D03*
D18*
X132265000Y-64540000D03*
D19*
X131465000Y-62000000D03*
D18*
X132265000Y-62000000D03*
D19*
X131465000Y-59460000D03*
D18*
X132265000Y-59460000D03*
D22*
X131465000Y-56920000D03*
D16*
X132265000Y-56920000D03*
D19*
X131465000Y-54380000D03*
D18*
X132265000Y-54380000D03*
D19*
X131465000Y-51840000D03*
D18*
X132265000Y-51840000D03*
%TD*%
D23*
%TO.C,R1*%
X136000000Y-107000000D03*
X136000000Y-112080000D03*
%TD*%
D12*
%TO.C,J2*%
X136500000Y-99500000D03*
D13*
X136500000Y-97000000D03*
X136500000Y-94500000D03*
X136500000Y-92000000D03*
X136500000Y-89500000D03*
X136500000Y-87000000D03*
X136500000Y-84500000D03*
X136500000Y-82000000D03*
X136500000Y-79500000D03*
X136500000Y-77000000D03*
X136500000Y-74500000D03*
X136500000Y-72000000D03*
%TD*%
D24*
%TO.C,J3*%
X108500000Y-94500000D03*
D13*
X108500000Y-97000000D03*
X108500000Y-99500000D03*
%TD*%
D14*
%TO.C,REF\u002A\u002A*%
X142000000Y-53000000D03*
%TD*%
%TO.C,REF\u002A\u002A*%
X103000000Y-53000000D03*
%TD*%
%TO.C,REF\u002A\u002A*%
X142000000Y-117000000D03*
%TD*%
D19*
%TO.C,C2*%
X125000000Y-107000000D03*
X125000000Y-112000000D03*
%TD*%
D25*
%TO.C,C1*%
X113500000Y-107000000D03*
D26*
X113500000Y-112000000D03*
%TD*%
%LPD*%
M02*
