%TF.GenerationSoftware,KiCad,Pcbnew,9.0.5*%
%TF.CreationDate,2026-03-01T21:55:39-05:00*%
%TF.ProjectId,UnibodyPCB,556e6962-6f64-4795-9043-422e6b696361,rev?*%
%TF.SameCoordinates,Original*%
%TF.FileFunction,Copper,L2,Bot*%
%TF.FilePolarity,Positive*%
%FSLAX46Y46*%
G04 Gerber Fmt 4.6, Leading zero omitted, Abs format (unit mm)*
G04 Created by KiCad (PCBNEW 9.0.5) date 2026-03-01 21:55:39*
%MOMM*%
%LPD*%
G01*
G04 APERTURE LIST*
G04 Aperture macros list*
%AMRoundRect*
0 Rectangle with rounded corners*
0 $1 Rounding radius*
0 $2 $3 $4 $5 $6 $7 $8 $9 X,Y pos of 4 corners*
0 Add a 4 corners polygon primitive as box body*
4,1,4,$2,$3,$4,$5,$6,$7,$8,$9,$2,$3,0*
0 Add four circle primitives for the rounded corners*
1,1,$1+$1,$2,$3*
1,1,$1+$1,$4,$5*
1,1,$1+$1,$6,$7*
1,1,$1+$1,$8,$9*
0 Add four rect primitives between the rounded corners*
20,1,$1+$1,$2,$3,$4,$5,0*
20,1,$1+$1,$4,$5,$6,$7,0*
20,1,$1+$1,$6,$7,$8,$9,0*
20,1,$1+$1,$8,$9,$2,$3,0*%
%AMFreePoly0*
4,1,37,0.000000,0.796148,0.078414,0.796148,0.232228,0.765552,0.377117,0.705537,0.507515,0.618408,0.618408,0.507515,0.705537,0.377117,0.765552,0.232228,0.796148,0.078414,0.796148,-0.078414,0.765552,-0.232228,0.705537,-0.377117,0.618408,-0.507515,0.507515,-0.618408,0.377117,-0.705537,0.232228,-0.765552,0.078414,-0.796148,0.000000,-0.796148,0.000000,-0.800000,-0.600000,-0.800000,
-0.603843,-0.796157,-0.639018,-0.796157,-0.711114,-0.766294,-0.766294,-0.711114,-0.796157,-0.639018,-0.796157,-0.603843,-0.800000,-0.600000,-0.800000,0.600000,-0.796157,0.603843,-0.796157,0.639018,-0.766294,0.711114,-0.711114,0.766294,-0.639018,0.796157,-0.603843,0.796157,-0.600000,0.800000,0.000000,0.800000,0.000000,0.796148,0.000000,0.796148,$1*%
%AMFreePoly1*
4,1,37,0.603843,0.796157,0.639018,0.796157,0.711114,0.766294,0.766294,0.711114,0.796157,0.639018,0.796157,0.603843,0.800000,0.600000,0.800000,-0.600000,0.796157,-0.603843,0.796157,-0.639018,0.766294,-0.711114,0.711114,-0.766294,0.639018,-0.796157,0.603843,-0.796157,0.600000,-0.800000,0.000000,-0.800000,0.000000,-0.796148,-0.078414,-0.796148,-0.232228,-0.765552,-0.377117,-0.705537,
-0.507515,-0.618408,-0.618408,-0.507515,-0.705537,-0.377117,-0.765552,-0.232228,-0.796148,-0.078414,-0.796148,0.078414,-0.765552,0.232228,-0.705537,0.377117,-0.618408,0.507515,-0.507515,0.618408,-0.377117,0.705537,-0.232228,0.765552,-0.078414,0.796148,0.000000,0.796148,0.000000,0.800000,0.600000,0.800000,0.603843,0.796157,0.603843,0.796157,$1*%
G04 Aperture macros list end*
%TA.AperFunction,ComponentPad*%
%ADD10C,1.600000*%
%TD*%
%TA.AperFunction,ComponentPad*%
%ADD11FreePoly0,0.000000*%
%TD*%
%TA.AperFunction,ComponentPad*%
%ADD12FreePoly1,0.000000*%
%TD*%
%TA.AperFunction,ComponentPad*%
%ADD13RoundRect,0.200000X-0.600000X-0.600000X0.600000X-0.600000X0.600000X0.600000X-0.600000X0.600000X0*%
%TD*%
%TA.AperFunction,ComponentPad*%
%ADD14C,1.400000*%
%TD*%
%TA.AperFunction,ComponentPad*%
%ADD15RoundRect,0.250000X-0.725000X0.600000X-0.725000X-0.600000X0.725000X-0.600000X0.725000X0.600000X0*%
%TD*%
%TA.AperFunction,ComponentPad*%
%ADD16O,1.950000X1.700000*%
%TD*%
%TA.AperFunction,ComponentPad*%
%ADD17RoundRect,0.250000X0.725000X-0.600000X0.725000X0.600000X-0.725000X0.600000X-0.725000X-0.600000X0*%
%TD*%
%TA.AperFunction,ComponentPad*%
%ADD18RoundRect,0.250001X-0.949999X0.949999X-0.949999X-0.949999X0.949999X-0.949999X0.949999X0.949999X0*%
%TD*%
%TA.AperFunction,ComponentPad*%
%ADD19C,2.400000*%
%TD*%
G04 APERTURE END LIST*
D10*
%TO.P,A1,40,VBUS*%
%TO.N,Net-(A1-VBUS)*%
X131465000Y-51840000D03*
%TO.P,A1,39,VSYS*%
%TO.N,unconnected-(A1-VSYS-Pad39)*%
X131465000Y-54380000D03*
D11*
%TO.P,A1,38,GND*%
%TO.N,Net-(J3-Pin_3)*%
X131465000Y-56920000D03*
D10*
%TO.P,A1,37,3V3_EN*%
%TO.N,unconnected-(A1-3V3_EN-Pad37)*%
X131465000Y-59460000D03*
%TO.P,A1,36,3V3*%
%TO.N,unconnected-(A1-3V3-Pad36)*%
X131465000Y-62000000D03*
%TO.P,A1,35,ADC_VREF*%
%TO.N,unconnected-(A1-ADC_VREF-Pad35)*%
X131465000Y-64540000D03*
%TO.P,A1,34,GPIO28_ADC2*%
%TO.N,unconnected-(A1-GPIO28_ADC2-Pad34)*%
X131465000Y-67080000D03*
D11*
%TO.P,A1,33,AGND*%
%TO.N,unconnected-(A1-AGND-Pad33)*%
X131465000Y-69620000D03*
D10*
%TO.P,A1,32,GPIO27_ADC1*%
%TO.N,unconnected-(A1-GPIO27_ADC1-Pad32)*%
X131465000Y-72160000D03*
%TO.P,A1,31,GPIO26_ADC0*%
%TO.N,unconnected-(A1-GPIO26_ADC0-Pad31)*%
X131465000Y-74700000D03*
%TO.P,A1,30,RUN*%
%TO.N,unconnected-(A1-RUN-Pad30)*%
X131465000Y-77240000D03*
%TO.P,A1,29,GPIO22*%
%TO.N,Net-(A1-GPIO22)*%
X131465000Y-79780000D03*
D11*
%TO.P,A1,28,GND*%
%TO.N,Net-(J3-Pin_3)*%
X131465000Y-82320000D03*
D10*
%TO.P,A1,27,GPIO21*%
%TO.N,Net-(A1-GPIO21)*%
X131465000Y-84860000D03*
%TO.P,A1,26,GPIO20*%
%TO.N,Net-(A1-GPIO20)*%
X131465000Y-87400000D03*
%TO.P,A1,25,GPIO19*%
%TO.N,Net-(A1-GPIO19)*%
X131465000Y-89940000D03*
%TO.P,A1,24,GPIO18*%
%TO.N,Net-(A1-GPIO18)*%
X131465000Y-92480000D03*
D11*
%TO.P,A1,23,GND*%
%TO.N,Net-(J3-Pin_3)*%
X131465000Y-95020000D03*
D10*
%TO.P,A1,22,GPIO17*%
%TO.N,Net-(A1-GPIO17)*%
X131465000Y-97560000D03*
%TO.P,A1,21,GPIO16*%
%TO.N,Net-(A1-GPIO16)*%
X131465000Y-100100000D03*
%TO.P,A1,20,GPIO15*%
%TO.N,unconnected-(A1-GPIO15-Pad20)*%
X113685000Y-100100000D03*
%TO.P,A1,19,GPIO14*%
%TO.N,unconnected-(A1-GPIO14-Pad19)*%
X113685000Y-97560000D03*
D12*
%TO.P,A1,18,GND*%
%TO.N,Net-(J3-Pin_3)*%
X113685000Y-95020000D03*
D10*
%TO.P,A1,17,GPIO13*%
%TO.N,unconnected-(A1-GPIO13-Pad17)*%
X113685000Y-92480000D03*
%TO.P,A1,16,GPIO12*%
%TO.N,unconnected-(A1-GPIO12-Pad16)*%
X113685000Y-89940000D03*
%TO.P,A1,15,GPIO11*%
%TO.N,Net-(A1-GPIO11)*%
X113685000Y-87400000D03*
%TO.P,A1,14,GPIO10*%
%TO.N,Net-(A1-GPIO10)*%
X113685000Y-84860000D03*
D12*
%TO.P,A1,13,GND*%
%TO.N,Net-(J3-Pin_3)*%
X113685000Y-82320000D03*
D10*
%TO.P,A1,12,GPIO9*%
%TO.N,Net-(A1-GPIO9)*%
X113685000Y-79780000D03*
%TO.P,A1,11,GPIO8*%
%TO.N,Net-(A1-GPIO8)*%
X113685000Y-77240000D03*
%TO.P,A1,10,GPIO7*%
%TO.N,Net-(A1-GPIO7)*%
X113685000Y-74700000D03*
%TO.P,A1,9,GPIO6*%
%TO.N,Net-(A1-GPIO6)*%
X113685000Y-72160000D03*
D12*
%TO.P,A1,8,GND*%
%TO.N,Net-(J3-Pin_3)*%
X113685000Y-69620000D03*
D10*
%TO.P,A1,7,GPIO5*%
%TO.N,Net-(A1-GPIO5)*%
X113685000Y-67080000D03*
%TO.P,A1,6,GPIO4*%
%TO.N,Net-(A1-GPIO4)*%
X113685000Y-64540000D03*
%TO.P,A1,5,GPIO3*%
%TO.N,Net-(A1-GPIO3)*%
X113685000Y-62000000D03*
%TO.P,A1,4,GPIO2*%
%TO.N,Net-(A1-GPIO2)*%
X113685000Y-59460000D03*
D12*
%TO.P,A1,3,GND*%
%TO.N,Net-(J3-Pin_3)*%
X113685000Y-56920000D03*
D10*
%TO.P,A1,2,GPIO1*%
%TO.N,Net-(A1-GPIO1)*%
X113685000Y-54380000D03*
D13*
%TO.P,A1,1,GPIO0*%
%TO.N,Net-(A1-GPIO0)*%
X113685000Y-51840000D03*
%TD*%
D14*
%TO.P,R1,2*%
%TO.N,Net-(J3-Pin_2)*%
X136000000Y-112080000D03*
%TO.P,R1,1*%
%TO.N,Net-(A1-GPIO22)*%
X136000000Y-107000000D03*
%TD*%
D15*
%TO.P,J3,1,Pin_1*%
%TO.N,Net-(A1-VBUS)*%
X108500000Y-94500000D03*
D16*
%TO.P,J3,2,Pin_2*%
%TO.N,Net-(J3-Pin_2)*%
X108500000Y-97000000D03*
%TO.P,J3,3,Pin_3*%
%TO.N,Net-(J3-Pin_3)*%
X108500000Y-99500000D03*
%TD*%
D10*
%TO.P,C2,1*%
%TO.N,Net-(A1-VBUS)*%
X125000000Y-107000000D03*
%TO.P,C2,2*%
%TO.N,Net-(J3-Pin_3)*%
X125000000Y-112000000D03*
%TD*%
D17*
%TO.P,J2,1,Pin_1*%
%TO.N,Net-(A1-GPIO16)*%
X136500000Y-99500000D03*
D16*
%TO.P,J2,2,Pin_2*%
X136500000Y-97000000D03*
%TO.P,J2,3,Pin_3*%
%TO.N,Net-(A1-GPIO17)*%
X136500000Y-94500000D03*
%TO.P,J2,4,Pin_4*%
X136500000Y-92000000D03*
%TO.P,J2,5,Pin_5*%
%TO.N,Net-(A1-GPIO18)*%
X136500000Y-89500000D03*
%TO.P,J2,6,Pin_6*%
X136500000Y-87000000D03*
%TO.P,J2,7,Pin_7*%
%TO.N,Net-(A1-GPIO19)*%
X136500000Y-84500000D03*
%TO.P,J2,8,Pin_8*%
X136500000Y-82000000D03*
%TO.P,J2,9,Pin_9*%
%TO.N,Net-(A1-GPIO20)*%
X136500000Y-79500000D03*
%TO.P,J2,10,Pin_10*%
X136500000Y-77000000D03*
%TO.P,J2,11,Pin_11*%
%TO.N,Net-(A1-GPIO21)*%
X136500000Y-74500000D03*
%TO.P,J2,12,Pin_12*%
X136500000Y-72000000D03*
%TD*%
D17*
%TO.P,J1,1,Pin_1*%
%TO.N,Net-(A1-GPIO11)*%
X108000000Y-86500000D03*
D16*
%TO.P,J1,2,Pin_2*%
%TO.N,Net-(A1-GPIO10)*%
X108000000Y-84000000D03*
%TO.P,J1,3,Pin_3*%
%TO.N,Net-(A1-GPIO9)*%
X108000000Y-81500000D03*
%TO.P,J1,4,Pin_4*%
%TO.N,Net-(A1-GPIO8)*%
X108000000Y-79000000D03*
%TO.P,J1,5,Pin_5*%
%TO.N,Net-(A1-GPIO7)*%
X108000000Y-76500000D03*
%TO.P,J1,6,Pin_6*%
%TO.N,Net-(A1-GPIO6)*%
X108000000Y-74000000D03*
%TO.P,J1,7,Pin_7*%
%TO.N,Net-(A1-GPIO5)*%
X108000000Y-71500000D03*
%TO.P,J1,8,Pin_8*%
%TO.N,Net-(A1-GPIO4)*%
X108000000Y-69000000D03*
%TO.P,J1,9,Pin_9*%
%TO.N,Net-(A1-GPIO3)*%
X108000000Y-66500000D03*
%TO.P,J1,10,Pin_10*%
%TO.N,Net-(A1-GPIO2)*%
X108000000Y-64000000D03*
%TO.P,J1,11,Pin_11*%
%TO.N,Net-(A1-GPIO1)*%
X108000000Y-61500000D03*
%TO.P,J1,12,Pin_12*%
%TO.N,Net-(A1-GPIO0)*%
X108000000Y-59000000D03*
%TD*%
D18*
%TO.P,C1,1*%
%TO.N,Net-(A1-VBUS)*%
X113500000Y-107000000D03*
D19*
%TO.P,C1,2*%
%TO.N,Net-(J3-Pin_3)*%
X113500000Y-112000000D03*
%TD*%
M02*
