M48
; DRILL file {KiCad 9.0.5} date 2026-03-01T21:55:41-0500
; FORMAT={-:-/ absolute / metric / decimal}
; #@! TF.CreationDate,2026-03-01T21:55:41-05:00
; #@! TF.GenerationSoftware,Kicad,Pcbnew,9.0.5
; #@! TF.FileFunction,Plated,1,2,PTH
FMAT,2
METRIC
; #@! TA.AperFunction,Plated,PTH,ComponentDrill
T1C0.700
; #@! TA.AperFunction,Plated,PTH,ComponentDrill
T2C0.800
; #@! TA.AperFunction,Plated,PTH,ComponentDrill
T3C0.950
; #@! TA.AperFunction,Plated,PTH,ComponentDrill
T4C1.000
; #@! TA.AperFunction,Plated,PTH,ComponentDrill
T5C1.200
%
G90
G05
T1
X136.0Y-107.0
X136.0Y-112.08
T2
X125.0Y-107.0
X125.0Y-112.0
T3
X108.0Y-59.0
X108.0Y-61.5
X108.0Y-64.0
X108.0Y-66.5
X108.0Y-69.0
X108.0Y-71.5
X108.0Y-74.0
X108.0Y-76.5
X108.0Y-79.0
X108.0Y-81.5
X108.0Y-84.0
X108.0Y-86.5
X108.5Y-94.5
X108.5Y-97.0
X108.5Y-99.5
X136.5Y-72.0
X136.5Y-74.5
X136.5Y-77.0
X136.5Y-79.5
X136.5Y-82.0
X136.5Y-84.5
X136.5Y-87.0
X136.5Y-89.5
X136.5Y-92.0
X136.5Y-94.5
X136.5Y-97.0
X136.5Y-99.5
T4
X113.685Y-51.84
X113.685Y-54.38
X113.685Y-56.92
X113.685Y-59.46
X113.685Y-62.0
X113.685Y-64.54
X113.685Y-67.08
X113.685Y-69.62
X113.685Y-72.16
X113.685Y-74.7
X113.685Y-77.24
X113.685Y-79.78
X113.685Y-82.32
X113.685Y-84.86
X113.685Y-87.4
X113.685Y-89.94
X113.685Y-92.48
X113.685Y-95.02
X113.685Y-97.56
X113.685Y-100.1
X131.465Y-51.84
X131.465Y-54.38
X131.465Y-56.92
X131.465Y-59.46
X131.465Y-62.0
X131.465Y-64.54
X131.465Y-67.08
X131.465Y-69.62
X131.465Y-72.16
X131.465Y-74.7
X131.465Y-77.24
X131.465Y-79.78
X131.465Y-82.32
X131.465Y-84.86
X131.465Y-87.4
X131.465Y-89.94
X131.465Y-92.48
X131.465Y-95.02
X131.465Y-97.56
X131.465Y-100.1
T5
X113.5Y-107.0
X113.5Y-112.0
M30
