%TF.GenerationSoftware,KiCad,Pcbnew,9.0.5*%
%TF.CreationDate,2026-03-01T21:55:40-05:00*%
%TF.ProjectId,UnibodyPCB,556e6962-6f64-4795-9043-422e6b696361,rev?*%
%TF.SameCoordinates,Original*%
%TF.FileFunction,Soldermask,Bot*%
%TF.FilePolarity,Negative*%
%FSLAX46Y46*%
G04 Gerber Fmt 4.6, Leading zero omitted, Abs format (unit mm)*
G04 Created by KiCad (PCBNEW 9.0.5) date 2026-03-01 21:55:40*
%MOMM*%
%LPD*%
G01*
G04 APERTURE LIST*
G04 Aperture macros list*
%AMRoundRect*
0 Rectangle with rounded corners*
0 $1 Rounding radius*
0 $2 $3 $4 $5 $6 $7 $8 $9 X,Y pos of 4 corners*
0 Add a 4 corners polygon primitive as box body*
4,1,4,$2,$3,$4,$5,$6,$7,$8,$9,$2,$3,0*
0 Add four circle primitives for the rounded corners*
1,1,$1+$1,$2,$3*
1,1,$1+$1,$4,$5*
1,1,$1+$1,$6,$7*
1,1,$1+$1,$8,$9*
0 Add four rect primitives between the rounded corners*
20,1,$1+$1,$2,$3,$4,$5,0*
20,1,$1+$1,$4,$5,$6,$7,0*
20,1,$1+$1,$6,$7,$8,$9,0*
20,1,$1+$1,$8,$9,$2,$3,0*%
%AMFreePoly0*
4,1,37,0.000000,0.796148,0.078414,0.796148,0.232228,0.765552,0.377117,0.705537,0.507515,0.618408,0.618408,0.507515,0.705537,0.377117,0.765552,0.232228,0.796148,0.078414,0.796148,-0.078414,0.765552,-0.232228,0.705537,-0.377117,0.618408,-0.507515,0.507515,-0.618408,0.377117,-0.705537,0.232228,-0.765552,0.078414,-0.796148,0.000000,-0.796148,0.000000,-0.800000,-0.600000,-0.800000,
-0.603843,-0.796157,-0.639018,-0.796157,-0.711114,-0.766294,-0.766294,-0.711114,-0.796157,-0.639018,-0.796157,-0.603843,-0.800000,-0.600000,-0.800000,0.600000,-0.796157,0.603843,-0.796157,0.639018,-0.766294,0.711114,-0.711114,0.766294,-0.639018,0.796157,-0.603843,0.796157,-0.600000,0.800000,0.000000,0.800000,0.000000,0.796148,0.000000,0.796148,$1*%
%AMFreePoly1*
4,1,37,0.603843,0.796157,0.639018,0.796157,0.711114,0.766294,0.766294,0.711114,0.796157,0.639018,0.796157,0.603843,0.800000,0.600000,0.800000,-0.600000,0.796157,-0.603843,0.796157,-0.639018,0.766294,-0.711114,0.711114,-0.766294,0.639018,-0.796157,0.603843,-0.796157,0.600000,-0.800000,0.000000,-0.800000,0.000000,-0.796148,-0.078414,-0.796148,-0.232228,-0.765552,-0.377117,-0.705537,
-0.507515,-0.618408,-0.618408,-0.507515,-0.705537,-0.377117,-0.765552,-0.232228,-0.796148,-0.078414,-0.796148,0.078414,-0.765552,0.232228,-0.705537,0.377117,-0.618408,0.507515,-0.507515,0.618408,-0.377117,0.705537,-0.232228,0.765552,-0.078414,0.796148,0.000000,0.796148,0.000000,0.800000,0.600000,0.800000,0.603843,0.796157,0.603843,0.796157,$1*%
G04 Aperture macros list end*
%ADD10C,1.600000*%
%ADD11FreePoly0,0.000000*%
%ADD12FreePoly1,0.000000*%
%ADD13RoundRect,0.200000X-0.600000X-0.600000X0.600000X-0.600000X0.600000X0.600000X-0.600000X0.600000X0*%
%ADD14C,2.200000*%
%ADD15C,1.850000*%
%ADD16C,1.400000*%
%ADD17RoundRect,0.250000X-0.725000X0.600000X-0.725000X-0.600000X0.725000X-0.600000X0.725000X0.600000X0*%
%ADD18O,1.950000X1.700000*%
%ADD19RoundRect,0.250000X0.725000X-0.600000X0.725000X0.600000X-0.725000X0.600000X-0.725000X-0.600000X0*%
%ADD20RoundRect,0.250001X-0.949999X0.949999X-0.949999X-0.949999X0.949999X-0.949999X0.949999X0.949999X0*%
%ADD21C,2.400000*%
G04 APERTURE END LIST*
D10*
%TO.C,A1*%
X131465000Y-51840000D03*
X131465000Y-54380000D03*
D11*
X131465000Y-56920000D03*
D10*
X131465000Y-59460000D03*
X131465000Y-62000000D03*
X131465000Y-64540000D03*
X131465000Y-67080000D03*
D11*
X131465000Y-69620000D03*
D10*
X131465000Y-72160000D03*
X131465000Y-74700000D03*
X131465000Y-77240000D03*
X131465000Y-79780000D03*
D11*
X131465000Y-82320000D03*
D10*
X131465000Y-84860000D03*
X131465000Y-87400000D03*
X131465000Y-89940000D03*
X131465000Y-92480000D03*
D11*
X131465000Y-95020000D03*
D10*
X131465000Y-97560000D03*
X131465000Y-100100000D03*
X113685000Y-100100000D03*
X113685000Y-97560000D03*
D12*
X113685000Y-95020000D03*
D10*
X113685000Y-92480000D03*
X113685000Y-89940000D03*
X113685000Y-87400000D03*
X113685000Y-84860000D03*
D12*
X113685000Y-82320000D03*
D10*
X113685000Y-79780000D03*
X113685000Y-77240000D03*
X113685000Y-74700000D03*
X113685000Y-72160000D03*
D12*
X113685000Y-69620000D03*
D10*
X113685000Y-67080000D03*
X113685000Y-64540000D03*
X113685000Y-62000000D03*
X113685000Y-59460000D03*
D12*
X113685000Y-56920000D03*
D10*
X113685000Y-54380000D03*
D13*
X113685000Y-51840000D03*
D14*
X125300000Y-51970000D03*
D15*
X125000000Y-55000000D03*
X120150000Y-55000000D03*
D14*
X119850000Y-51970000D03*
%TD*%
D16*
%TO.C,R1*%
X136000000Y-112080000D03*
X136000000Y-107000000D03*
%TD*%
D17*
%TO.C,J3*%
X108500000Y-94500000D03*
D18*
X108500000Y-97000000D03*
X108500000Y-99500000D03*
%TD*%
D10*
%TO.C,C2*%
X125000000Y-107000000D03*
X125000000Y-112000000D03*
%TD*%
D19*
%TO.C,J2*%
X136500000Y-99500000D03*
D18*
X136500000Y-97000000D03*
X136500000Y-94500000D03*
X136500000Y-92000000D03*
X136500000Y-89500000D03*
X136500000Y-87000000D03*
X136500000Y-84500000D03*
X136500000Y-82000000D03*
X136500000Y-79500000D03*
X136500000Y-77000000D03*
X136500000Y-74500000D03*
X136500000Y-72000000D03*
%TD*%
D19*
%TO.C,J1*%
X108000000Y-86500000D03*
D18*
X108000000Y-84000000D03*
X108000000Y-81500000D03*
X108000000Y-79000000D03*
X108000000Y-76500000D03*
X108000000Y-74000000D03*
X108000000Y-71500000D03*
X108000000Y-69000000D03*
X108000000Y-66500000D03*
X108000000Y-64000000D03*
X108000000Y-61500000D03*
X108000000Y-59000000D03*
%TD*%
D20*
%TO.C,C1*%
X113500000Y-107000000D03*
D21*
X113500000Y-112000000D03*
%TD*%
D14*
%TO.C,REF\u002A\u002A*%
X143000000Y-118000000D03*
%TD*%
%TO.C,REF\u002A\u002A*%
X102000000Y-118000000D03*
%TD*%
%TO.C,REF\u002A\u002A*%
X102000000Y-52000000D03*
%TD*%
%TO.C,REF\u002A\u002A*%
X143000000Y-52000000D03*
%TD*%
M02*
